<?xml version="1.0" encoding="UTF-8"?>
<svg width="1527px" height="730px" viewBox="0 0 1527 730" version="1.1" xmlns="http://www.w3.org/2000/svg" xmlns:xlink="http://www.w3.org/1999/xlink">
    <title>14C38005-87F6-464D-909A-5FF240880656</title>
    <g id="Landing-Programa-Becas" stroke="none" stroke-width="1" fill="none" fill-rule="evenodd" opacity="0.05">
        <g id="Home-Page-Programa-Becas" transform="translate(56.000000, -3109.000000)">
            <g id="Group-19" transform="translate(-56.000000, 3109.000000)">
                <ellipse id="Oval-Copy" stroke="#714FF1" stroke-width="63.1206052" stroke-linecap="round" stroke-linejoin="round" cx="839" cy="263" rx="208" ry="203"></ellipse>
                <g id="Group" transform="translate(1079.000000, 60.000000)" stroke="#714FF1" stroke-linecap="round" stroke-linejoin="round" stroke-width="63.1206052">
                    <ellipse id="Oval" cx="208" cy="203" rx="208" ry="203"></ellipse>
                    <polyline id="Path" points="95.3828571 373.81 59.4285714 638 208 551 356.571429 638 320.617143 373.52"></polyline>
                </g>
                <path d="M448.896074,534 C502.106236,534 547.630485,516.612583 585.468822,481.837748 C624.489607,446.47351 644,403.44702 644,352.758278 C644,300.301325 624.785219,255.801325 586.355658,219.258278 C547.926097,182.715232 502.106236,164.443709 448.896074,164.443709 C426.429561,164.443709 407.806005,166.506623 393.025404,170.63245 C373.515012,175.937086 358.438799,185.072848 347.796767,198.039735 L347.796767,198.039735 L374.401848,60.1192053 L603.205543,60.1192053 L603.205543,0 L320.30485,0 L266.207852,278.493377 L327.399538,278.493377 C342.180139,260.811258 360.212471,247.254967 381.496536,237.824503 C402.7806,228.983444 425.247113,224.562914 448.896074,224.562914 C485.551963,224.562914 517.182448,236.940397 543.787529,261.695364 C570.39261,286.450331 583.69515,316.804636 583.69515,352.758278 C583.69515,386.943709 570.096998,415.824503 542.900693,439.400662 C516.886836,462.387417 485.551963,473.880795 448.896074,473.880795 C414.605081,473.880795 385.04388,465.039735 360.212471,447.357616 C333.60739,427.907285 320.30485,403.152318 320.30485,373.092715 L320.30485,373.092715 L260,373.092715 C260,419.655629 279.214781,458.556291 317.644342,489.794702 C354.300231,519.264901 398.050808,534 448.896074,534 Z" id="5" fill="#714FF1" fill-rule="nonzero"></path>
                <path d="M107.556086,394 C113.914081,394 119.742243,391.975934 125.040573,387.927802 C130.338902,383.87967 133.164678,377.279454 133.5179,368.127155 L133.5179,368.127155 L133.5179,292.62069 L197.627685,292.62069 C205.75179,290.508621 211.844869,287.340517 215.906921,283.116379 C219.968974,278.892241 222,274.316092 222,269.387931 C222,264.45977 220.145585,259.795618 216.436754,255.395474 C212.727924,250.99533 206.988067,247.739224 199.217184,245.627155 L199.217184,245.627155 L133.5179,245.627155 L133.5179,169.592672 C131.75179,162.552443 128.396181,157.360273 123.451074,154.016164 C118.505967,150.672055 113.207637,149 107.556086,149 C101.198091,149 95.7231504,150.760057 91.1312649,154.280172 C86.5393795,157.800287 83.3603819,163.432471 81.5942721,171.176724 L81.5942721,171.176724 L81.5942721,245.627155 L28.6109785,245.627155 C18.7207637,245.979167 11.4797136,248.619253 6.88782816,253.547414 C2.29594272,258.475575 0,263.755747 0,269.387931 C0,274.668103 2.11933174,279.508261 6.35799523,283.908405 C10.5966587,288.308549 17.3078759,291.212644 26.4916468,292.62069 L26.4916468,292.62069 L81.5942721,292.62069 L81.5942721,370.239224 C82.6539379,378.335489 85.6563246,384.319684 90.601432,388.19181 C95.5465394,392.063937 101.198091,394 107.556086,394 Z" id="+" fill="#714FF1" fill-rule="nonzero"></path>
            </g>
        </g>
    </g>
</svg>