<?xml version="1.0" encoding="UTF-8"?>
<svg width="420px" height="72px" viewBox="0 0 420 72" version="1.1" xmlns="http://www.w3.org/2000/svg" xmlns:xlink="http://www.w3.org/1999/xlink">
    <title>EBDD860D-84C9-4EE0-8E71-11318FC8624E</title>
    <g id="Landing-Programa-Becas" stroke="none" stroke-width="1" fill="none" fill-rule="evenodd">
        <g id="Home-Page-Programa-Becas" transform="translate(-476.000000, -139.000000)">
            <g id="Group-4" transform="translate(476.000000, 139.000000)">
                <path d="M38.1872035,54 C43.3712035,54 47.7002035,52.182 51.1742035,48.546 C54.6482035,44.91 56.3852035,40.428 56.3852035,35.1 C56.3852035,29.772 54.6482035,25.29 51.1742035,21.654 C47.7002035,18.018 43.3712035,16.2 38.1872035,16.2 L38.1872035,16.2 L23.1752035,16.2 L23.1752035,54 L38.1872035,54 Z M38.1872035,46.872 L30.6272035,46.872 L30.6272035,23.328 L38.1872035,23.328 C41.4632035,23.328 44.1272035,24.417 46.1792035,26.595 C48.2312035,28.773 49.2572035,31.608 49.2572035,35.1 C49.2572035,38.592 48.2312035,41.427 46.1792035,43.605 C44.1272035,45.783 41.4632035,46.872 38.1872035,46.872 L38.1872035,46.872 Z M72.7292035,54 L72.7292035,16.2 L65.2772035,16.2 L65.2772035,54 L72.7292035,54 Z M101.871203,54.756 C107.343203,54.756 111.807203,53.082 115.263203,49.734 C118.719203,46.386 120.447203,42.012 120.447203,36.612 L120.447203,36.612 L120.447203,33.696 L101.493203,33.696 L101.493203,40.284 L112.941203,40.284 C112.257203,42.516 110.970203,44.271 109.080203,45.549 C107.190203,46.827 104.805203,47.466 101.925203,47.466 C98.0372035,47.466 94.9142035,46.305 92.5562035,43.983 C90.1982035,41.661 89.0192035,38.718 89.0192035,35.154 C89.0192035,31.554 90.1802035,28.575 92.5022035,26.217 C94.8242035,23.859 97.7852035,22.68 101.385203,22.68 C103.617203,22.68 105.642203,23.166 107.460203,24.138 C109.278203,25.11 110.637203,26.37 111.537203,27.918 L111.537203,27.918 L117.909203,24.246 C116.289203,21.582 114.021203,19.449 111.105203,17.847 C108.189203,16.245 104.967203,15.444 101.439203,15.444 C95.8232035,15.444 91.1162035,17.352 87.3182035,21.168 C83.5202035,24.984 81.6212035,29.646 81.6212035,35.154 C81.6212035,40.626 83.5382035,45.261 87.3722035,49.059 C91.2062035,52.857 96.0392035,54.756 101.871203,54.756 Z M136.791203,54 L136.791203,16.2 L129.339203,16.2 L129.339203,54 L136.791203,54 Z M162.207203,54 L162.207203,23.328 L172.413203,23.328 L172.413203,16.2 L144.603203,16.2 L144.603203,23.328 L154.755203,23.328 L154.755203,54 L162.207203,54 Z M182.115203,54 L184.383203,47.196 L199.449203,47.196 L201.717203,54 L209.817203,54 L196.533203,16.2 L187.299203,16.2 L174.069203,54 L182.115203,54 Z M197.127203,40.23 L186.759203,40.23 L191.943203,24.786 L197.127203,40.23 Z M238.959203,54 L238.959203,46.872 L224.541203,46.872 L224.541203,16.2 L217.089203,16.2 L217.089203,54 L238.959203,54 Z" id="DIGITAL" fill="#FFFFFF" fill-rule="nonzero"></path>
                <g id="Group-3" transform="translate(247.628997, 4.069746)">
                    <ellipse id="Oval-Copy" stroke="#FFFFFF" stroke-width="6.4512" stroke-linecap="round" stroke-linejoin="round" cx="94.535505" cy="29.639345" rx="23.4112554" ry="22.9090909"></ellipse>
                    <g id="Group" transform="translate(121.548492, 6.730254)" stroke="#FFFFFF" stroke-linecap="round" stroke-linejoin="round" stroke-width="6.4512">
                        <ellipse id="Oval" cx="23.4112554" cy="22.9090909" rx="23.4112554" ry="22.9090909"></ellipse>
                    </g>
                    <path d="M50.5091866,60.2605081 C56.4982091,60.2605081 61.6221506,58.2983834 65.881011,54.3741339 C70.2729609,50.3833718 72.4689358,45.5279446 72.4689358,39.8078522 C72.4689358,33.8882217 70.3062332,28.8665127 65.9808281,24.7427252 C61.6554229,20.6189376 56.4982091,18.5570439 50.5091866,18.5570439 C47.9804882,18.5570439 45.8843303,18.7898383 44.2207129,19.2554273 C42.024738,19.8540416 40.3278483,20.8849885 39.1300438,22.3482679 L39.1300438,22.3482679 L42.124555,6.78429561 L67.8773519,6.78429561 L67.8773519,0 L36.0357155,0 L29.9468759,31.4272517 L36.8342518,31.4272517 C38.4978692,29.4318707 40.5274824,27.9020785 42.9230914,26.8378753 C45.3187004,25.8401848 47.8473988,25.3413395 50.5091866,25.3413395 C54.6349576,25.3413395 58.1950988,26.7381062 61.1896101,29.5316397 C64.1841213,32.3251732 65.681377,35.7505774 65.681377,39.8078522 C65.681377,43.6655889 64.150849,46.9247113 61.089793,49.5852194 C58.1618265,52.1792148 54.6349576,53.4762125 50.5091866,53.4762125 C46.6495943,53.4762125 43.3223595,52.4785219 40.5274824,50.4831409 C37.5329711,48.2882217 36.0357155,45.4946882 36.0357155,42.1025404 L36.0357155,42.1025404 L29.2481566,42.1025404 C29.2481566,47.3570439 31.4108592,51.7468822 35.7362643,55.2720554 C39.8620354,58.5976905 44.7863428,60.2605081 50.5091866,60.2605081 Z" id="5" fill="#FFFFFF" fill-rule="nonzero"></path>
                    <path d="M12.1185334,44.4606408 C12.8348999,44.4606408 13.4915692,44.2319115 14.0885413,43.7744529 C14.6855134,43.3169944 15.0038985,42.571138 15.0436966,41.5368839 L15.0436966,41.5368839 L15.0436966,33.0042872 L22.2670589,33.0042872 C23.1824161,32.7656132 23.868934,32.4076021 24.3266126,31.930254 C24.7842912,31.452906 25.0131305,30.9357789 25.0131305,30.3788728 C25.0131305,29.8219667 24.8041903,29.2948949 24.3863098,28.7976574 C23.9684294,28.3004198 23.3217096,27.932464 22.4461505,27.69379 L22.4461505,27.69379 L15.0436966,27.69379 L15.0436966,19.1015248 C14.8447059,18.3059446 14.4666236,17.7192043 13.9094497,17.3413038 C13.3522757,16.9634032 12.7553036,16.7744529 12.1185334,16.7744529 C11.4021669,16.7744529 10.7852957,16.973348 10.2679199,17.371138 C9.75054412,17.7689281 9.39236086,18.4053922 9.19337017,19.2805303 L9.19337017,19.2805303 L9.19337017,27.69379 L3.22364928,27.69379 C2.10930138,27.733569 1.29343953,28.0319115 0.776063715,28.5888176 C0.258687905,29.1457237 0,29.7424087 0,30.3788728 C0,30.9755579 0.238788835,31.5225192 0.716366506,32.0197568 C1.19394418,32.5169944 1.95010882,32.8451712 2.98486044,33.0042872 L2.98486044,33.0042872 L9.19337017,33.0042872 L9.19337017,41.7755579 C9.31276458,42.690475 9.65104877,43.3667181 10.2082227,43.8042872 C10.7653967,44.2418563 11.4021669,44.4606408 12.1185334,44.4606408 Z" id="+" fill="#714FF1" fill-rule="nonzero"></path>
                </g>
            </g>
        </g>
    </g>
</svg>