<?xml version="1.0" encoding="UTF-8"?>
<svg width="132px" height="28px" viewBox="0 0 132 28" version="1.1" xmlns="http://www.w3.org/2000/svg" xmlns:xlink="http://www.w3.org/1999/xlink">
    <title>ABBABACF-18AA-4703-8E24-3407F98811C3</title>
    <defs>
        <polygon id="path-1" points="0 28 132 28 132 0 0 0"></polygon>
    </defs>
    <g id="Landing-Programa-Becas" stroke="none" stroke-width="1" fill="none" fill-rule="evenodd">
        <g id="Home-Page-Programa-Becas" transform="translate(-34.000000, -25.000000)">
            <g id="Group-2" transform="translate(34.000000, 13.311388)">
                <g id="Group-36" transform="translate(0.000000, 11.688612)">
                    <path d="M41.3859499,6.96140776 C40.3086931,6.96140776 39.416345,7.26784596 38.7094753,7.88072236 C38.001466,8.49417369 37.5632695,9.31287537 37.3937462,10.3371149 L45.1009331,10.3371149 C44.9314097,9.23554716 44.5011908,8.39729782 43.8088517,7.82265433 C43.1165127,7.24887324 42.3090687,6.96140776 41.3859499,6.96140776 L41.3859499,6.96140776 Z M37.3937462,12.1064649 C37.5940401,13.146515 38.0667111,13.9540055 38.8128988,14.5277866 C39.5588016,15.1021426 40.4782164,15.3890332 41.5708586,15.3890332 C43.0937196,15.3890332 44.2008923,14.8230137 44.8932314,13.6898247 L46.6007162,14.6674948 C45.4775883,16.4218967 43.7857738,17.2983789 41.5244177,17.2983789 C39.6935655,17.2983789 38.2051789,16.7205733 37.059543,15.5638122 C35.9133372,14.4079135 35.3403767,12.9447142 35.3403767,11.1753642 C35.3403767,9.42153732 35.9016557,7.96265002 37.0247836,6.7987023 C38.1473416,5.63446711 39.6012536,5.05263698 41.3859499,5.05263698 C43.0777645,5.05263698 44.4587387,5.65401476 45.5277331,6.85677033 C46.5967274,8.05952589 47.1317944,9.50691457 47.1317944,11.1983614 C47.1317944,11.4935885 47.1087164,11.7962896 47.0622755,12.1064649 L37.3937462,12.1064649 Z" id="Fill-1" fill="#FFFFFF"></path>
                    <path d="M53.0157648,8.46332864 C53.0157648,8.90343829 53.2425557,9.2564459 53.6952827,9.52177654 C54.1482947,9.78739464 54.6882052,10.0133425 55.3155841,10.1990452 C55.9421082,10.3850354 56.5726211,10.5718879 57.206553,10.7596029 C57.8413396,10.9473178 58.3778312,11.2997505 58.8174522,11.816326 C59.2567884,12.3329015 59.4767414,12.9960843 59.4767414,13.806162 C59.4767414,14.8617353 59.0730194,15.7074587 58.2652904,16.3439073 C57.4575615,16.9806433 56.4230417,17.2985801 55.1620159,17.2985801 C54.0388881,17.2985801 53.0770211,17.049635 52.2775547,16.5531821 C51.4775184,16.0567293 50.9079769,15.3972835 50.569785,14.5742698 L52.3006326,13.573315 C52.4852564,14.1324353 52.8314259,14.5742698 53.3388563,14.9002556 C53.8462867,15.2262415 54.4540066,15.3892344 55.1620159,15.3892344 C55.8230145,15.3892344 56.3691931,15.2618872 56.8002668,15.0057555 C57.2304857,14.7501987 57.4464499,14.3509091 57.4464499,13.8084618 C57.4464499,13.3591532 57.2227931,12.9992464 56.7763341,12.7281665 C56.3295902,12.4567991 55.7928137,12.2262518 55.1660047,12.0365245 C54.5391956,11.8465099 53.9086827,11.6553453 53.2750358,11.4636058 C52.6402492,11.2712914 52.1003387,10.9274827 51.6541646,10.4304549 C51.2079905,9.93400203 50.9854733,9.29784093 50.9854733,8.52110921 C50.9854733,7.51239284 51.3735251,6.68219254 52.1504834,6.03022084 C52.9268718,5.37796166 53.9004202,5.05255074 55.0694191,5.05255074 C56.0079232,5.05255074 56.8424339,5.26585013 57.5729514,5.69273636 C58.3034688,6.1196226 58.8539211,6.71323881 59.2228837,7.47329754 L57.5384769,8.42825786 C57.1233583,7.43535209 56.2999592,6.93832428 55.0694191,6.93832428 C54.5004474,6.93832428 54.0158101,7.07084587 53.615507,7.33646397 C53.2154889,7.60208207 53.0157648,7.97779945 53.0157648,8.46332864" id="Fill-3" fill="#FFFFFF"></path>
                    <path d="M69.2601193,17.2985226 C67.5218639,17.2985226 66.0759294,16.7129555 64.9223158,15.5406712 C63.7687023,14.3686745 63.1917531,12.9138117 63.1917531,11.1752205 C63.1917531,9.43749166 63.7687023,7.98234141 64.9223158,6.81005719 C66.0759294,5.63806043 67.5218639,5.05249325 69.2601193,5.05249325 C70.3986324,5.05249325 71.4211859,5.32817264 72.3292043,5.87866903 C73.2363679,6.42974036 73.9133216,7.17111383 74.3594957,8.10221451 L72.6753738,9.0798846 C72.3827679,8.45924664 71.9331749,7.96279375 71.3254551,7.58995103 C70.7177352,7.21739577 70.0293849,7.0314056 69.2601193,7.0314056 C68.1065057,7.0314056 67.1409349,7.4269581 66.3645464,8.21863803 C65.5875881,9.01031796 65.1989665,9.99632455 65.1989665,11.1752205 C65.1989665,12.3394557 65.5875881,13.3174132 66.3645464,14.1088057 C67.1409349,14.9004856 68.1065057,15.2963256 69.2601193,15.2963256 C70.0293849,15.2963256 70.721724,15.1140725 71.3368516,14.7489913 C71.9519792,14.3847725 72.4215161,13.8917692 72.7443228,13.2705563 L74.4520925,14.2717986 C73.9594776,15.1876636 73.252323,15.9212755 72.3292043,16.4717719 C71.4063704,17.0225558 70.3826773,17.2985226 69.2601193,17.2985226" id="Fill-5" fill="#FFFFFF"></path>
                    <path d="M84.0280251,15.34278 C85.197024,15.34278 86.1742762,14.9434904 86.9589272,14.1437615 C87.7435781,13.3446075 88.1356187,12.3551513 88.1356187,11.175393 C88.1356187,9.99620956 87.7435781,9.00675339 86.9589272,8.20702442 C86.1742762,7.40787039 85.197024,7.00771845 84.0280251,7.00771845 C82.8744116,7.00771845 81.9054218,7.40787039 81.1207708,8.20702442 C80.3361199,9.00675339 79.9440793,9.99620956 79.9440793,11.175393 C79.9440793,12.3551513 80.3361199,13.3446075 81.1207708,14.1437615 C81.9054218,14.9434904 82.8744116,15.34278 84.0280251,15.34278 L84.0280251,15.34278 Z M88.1356187,5.35479195 L90.1428322,5.35479195 L90.1428322,16.9957065 L88.1356187,16.9957065 L88.1356187,14.9935094 C87.1355734,16.5300124 85.6816613,17.2984076 83.7741674,17.2984076 C82.1589945,17.2984076 80.7822939,16.7047914 79.6437808,15.5172715 C78.5052677,14.3300391 77.9365809,12.8826504 77.9365809,11.175393 C77.9365809,9.46813548 78.5052677,8.02103426 79.6437808,6.8332269 C80.7822939,5.64599448 82.1589945,5.05237826 83.7741674,5.05237826 C85.6816613,5.05237826 87.1355734,5.82048602 88.1356187,7.356989 L88.1356187,5.35479195 Z" id="Fill-7" fill="#FFFFFF"></path>
                    <mask id="mask-2" fill="white">
                        <use xlink:href="#path-1"></use>
                    </mask>
                    <g id="Clip-10"></g>
                    <polygon id="Fill-9" fill="#FFFFFF" mask="url(#mask-2)" points="95.4960663 16.995534 97.5038496 16.995534 97.5038496 0 95.4960663 0"></polygon>
                    <path d="M108.325138,15.34278 C109.494137,15.34278 110.471389,14.9434904 111.25604,14.1437615 C112.040406,13.3446075 112.432731,12.3551513 112.432731,11.175393 C112.432731,9.99620956 112.040406,9.00675339 111.25604,8.20702442 C110.471389,7.40787039 109.494137,7.00771845 108.325138,7.00771845 C107.171524,7.00771845 106.202534,7.40787039 105.417883,8.20702442 C104.633233,9.00675339 104.241192,9.99620956 104.241192,11.175393 C104.241192,12.3551513 104.633233,13.3446075 105.417883,14.1437615 C106.202534,14.9434904 107.171524,15.34278 108.325138,15.34278 L108.325138,15.34278 Z M112.432731,5.35479195 L114.439945,5.35479195 L114.439945,16.9957065 L112.432731,16.9957065 L112.432731,14.9935094 C111.432686,16.5300124 109.978774,17.2984076 108.07128,17.2984076 C106.456107,17.2984076 105.079407,16.7047914 103.940893,15.5172715 C102.80238,14.3300391 102.233694,12.8826504 102.233694,11.175393 C102.233694,9.46813548 102.80238,8.02103426 103.940893,6.8332269 C105.079407,5.64599448 106.456107,5.05237826 108.07128,5.05237826 C109.978774,5.05237826 111.432686,5.82048602 112.432731,7.356989 L112.432731,5.35479195 Z" id="Fill-11" fill="#FFFFFF" mask="url(#mask-2)"></path>
                    <path d="M125.908014,15.34278 C127.061628,15.34278 128.031188,14.9434904 128.815269,14.1437615 C129.59992,13.3446075 129.99253,12.3551513 129.99253,11.175393 C129.99253,9.99620956 129.59992,9.00675339 128.815269,8.20702442 C128.031188,7.40787039 127.061628,7.00771845 125.908014,7.00771845 C124.739016,7.00771845 123.762333,7.40787039 122.977682,8.20702442 C122.193031,9.00675339 121.800991,9.99620956 121.800991,11.175393 C121.800991,12.3551513 122.193031,13.3446075 122.977682,14.1437615 C123.762333,14.9434904 124.739016,15.34278 125.908014,15.34278 M126.161872,5.05237826 C127.777045,5.05237826 129.153746,5.64599448 130.292259,6.8332269 C131.430772,8.02103426 131.999744,9.46813548 131.999744,11.175393 C131.999744,12.8826504 131.430772,14.3300391 130.292259,15.5172715 C129.153746,16.7047914 127.777045,17.2984076 126.161872,17.2984076 C124.254378,17.2984076 122.800466,16.5300124 121.800991,14.9935094 L121.800991,16.9957065 L119.793207,16.9957065 L119.793207,0.698713592 L121.800991,0.698713592 L121.800991,7.356989 C122.800466,5.82048602 124.254378,5.05237826 126.161872,5.05237826" id="Fill-12" fill="#FFFFFF" mask="url(#mask-2)"></path>
                    <path d="M37.2270719,27.8282681 C36.6840274,27.8282681 36.2338645,27.6471649 35.8765834,27.2849584 C35.5190173,26.9224644 35.3403767,26.4743057 35.3403767,25.9401949 C35.3403767,25.4063715 35.5190173,24.9582128 35.8765834,24.5957188 C36.2338645,24.2335123 36.6840274,24.0524091 37.2270719,24.0524091 C37.5535825,24.0524091 37.8550206,24.1303122 38.1316713,24.286406 C38.4083221,24.4424997 38.6240013,24.6540743 38.7787092,24.9208423 L38.2630163,25.222681 C38.1670006,25.0424402 38.0268233,24.8992824 37.8430543,24.7934951 C37.6592853,24.6879952 37.4538628,24.6348141 37.2270719,24.6348141 C36.8421542,24.6348141 36.5301743,24.7578493 36.291417,25.0042073 C36.0526597,25.2502777 35.9332811,25.5624652 35.9332811,25.9401949 C35.9332811,26.318212 36.0526597,26.630112 36.291417,26.8764699 C36.5301743,27.1228278 36.8421542,27.2458631 37.2270719,27.2458631 C37.4538628,27.2458631 37.66014,27.1929694 37.8456185,27.0871821 C38.031097,26.9813948 38.1704195,26.838237 38.2630163,26.6579962 L38.7787092,26.9543731 C38.6274203,27.2214285 38.4134505,27.4338655 38.1367998,27.591684 C37.8601491,27.7495026 37.5570014,27.8282681 37.2270719,27.8282681" id="Fill-13" fill="#FFFFFF" mask="url(#mask-2)"></path>
                    <path d="M41.0544249,26.8738252 C41.3000201,27.1219079 41.6034526,27.2458056 41.9641527,27.2458056 C42.3251378,27.2458056 42.6282854,27.1219079 42.8738806,26.8738252 C43.1194758,26.62603 43.2425583,26.3147049 43.2425583,25.9404248 C43.2425583,25.5658573 43.1194758,25.2545322 42.8738806,25.006737 C42.6282854,24.7589417 42.3251378,24.6347566 41.9641527,24.6347566 C41.6034526,24.6347566 41.3000201,24.7589417 41.0544249,25.006737 C40.8085448,25.2545322 40.6857472,25.5658573 40.6857472,25.9404248 C40.6857472,26.3147049 40.8085448,26.62603 41.0544249,26.8738252 M43.2915633,27.279439 C42.9288688,27.6453826 42.4866835,27.8282106 41.9641527,27.8282106 C41.4419068,27.8282106 40.9994366,27.6453826 40.6370271,27.279439 C40.2743326,26.9137829 40.0931278,26.4673491 40.0931278,25.9404248 C40.0931278,25.4132131 40.2743326,24.9670667 40.6370271,24.6011232 C40.9994366,24.2354671 41.4419068,24.0523516 41.9641527,24.0523516 C42.4866835,24.0523516 42.9288688,24.2354671 43.2915633,24.6011232 C43.6539729,24.9670667 43.8351777,25.4132131 43.8351777,25.9404248 C43.8351777,26.4673491 43.6539729,26.9137829 43.2915633,27.279439" id="Fill-14" fill="#FFFFFF" mask="url(#mask-2)"></path>
                    <polygon id="Fill-15" fill="#FFFFFF" mask="url(#mask-2)" points="48.861075 24.1200209 48.861075 27.7604838 48.2681707 27.7604838 48.2681707 25.1655329 47.1704001 26.9961131 47.0983171 26.9958256 46.0002616 25.1597836 46.0002616 27.7604838 45.4073572 27.7604838 45.4073572 24.1200209 46.0467025 24.1200209 47.1350709 25.9399649 48.2265733 24.1200209"></polygon>
                    <path d="M51.9436079,25.9506874 C52.1188295,25.9506874 52.2632805,25.8908945 52.3763911,25.7713089 C52.4900714,25.6517233 52.5467691,25.4999415 52.5467691,25.316251 C52.5467691,25.1325606 52.4900714,24.9807788 52.3763911,24.8611932 C52.2632805,24.7416075 52.1188295,24.6818147 51.9436079,24.6818147 L51.2065375,24.6818147 L51.2065375,25.9506874 L51.9436079,25.9506874 Z M51.9436079,24.1201072 C52.2837943,24.1201072 52.5681376,24.2345184 52.796638,24.463341 C53.0251384,24.6921635 53.1393886,24.9764668 53.1393886,25.316251 C53.1393886,25.6525856 53.0251384,25.9360266 52.796638,26.1665739 C52.5681376,26.3971212 52.2837943,26.5123949 51.9436079,26.5123949 L51.2065375,26.5123949 L51.2065375,27.76057 L50.6136331,27.76057 L50.6136331,24.1201072 L51.9436079,24.1201072 Z" id="Fill-16" fill="#FFFFFF" mask="url(#mask-2)"></path>
                    <path d="M55.0827815,26.4656818 L56.2261382,26.4656818 L55.655742,24.8222416 L55.0827815,26.4656818 Z M56.6754463,27.7607137 L56.4210188,27.0271018 L54.8867612,27.0271018 L54.6343282,27.7607137 L53.9901394,27.7607137 L55.2993156,24.1199635 L56.0107438,24.1199635 L57.3147915,27.7607137 L56.6754463,27.7607137 Z" id="Fill-17" fill="#FFFFFF" mask="url(#mask-2)"></path>
                    <path d="M59.3251106,24.6817572 L59.3251106,25.8985986 L60.1755765,25.8985986 C60.3337033,25.8985986 60.4676125,25.8396682 60.577589,25.7218073 C60.6875655,25.6039465 60.7425537,25.4599263 60.7425537,25.2903217 C60.7425537,25.1204296 60.6875655,24.9764094 60.577589,24.8585485 C60.4676125,24.7406877 60.3337033,24.6817572 60.1755765,24.6817572 L59.3251106,24.6817572 Z M60.7889946,27.7605125 L60.0268518,26.4344343 L59.3251106,26.4344343 L59.3251106,27.7605125 L58.7322062,27.7605125 L58.7322062,24.1200497 L60.1755765,24.1200497 C60.498668,24.1200497 60.7727545,24.2335986 60.997836,24.4606963 C61.2229174,24.687794 61.3354581,24.9643358 61.3354581,25.2903217 C61.3354581,25.5225938 61.2690733,25.7350307 61.1368736,25.9273452 C61.0046739,26.1196596 60.8320165,26.2593678 60.6189014,26.3458949 L61.4385967,27.7605125 L60.7889946,27.7605125 Z" id="Fill-18" fill="#FFFFFF" mask="url(#mask-2)"></path>
                    <polygon id="Fill-19" fill="#FFFFFF" mask="url(#mask-2)" points="65.185889 24.1200209 65.185889 24.6920772 64.1704584 24.6920772 64.1704584 27.7604838 63.577554 27.7604838 63.577554 24.6920772 62.5569949 24.6920772 62.5569949 24.1200209"></polygon>
                    <polygon id="Fill-20" fill="#FFFFFF" mask="url(#mask-2)" points="67.2477489 27.1885137 68.845827 27.1885137 68.845827 27.76057 66.6548445 27.76057 66.6548445 24.1201072 68.8198999 24.1201072 68.8198999 24.6921635 67.2477489 24.6921635 67.2477489 25.6384998 68.6911191 25.6384998 68.6911191 26.2056692 67.2477489 26.2056692"></polygon>
                    <polygon id="Fill-21" fill="#FFFFFF" mask="url(#mask-2)" points="73.3302468 27.1885137 74.9283249 27.1885137 74.9283249 27.76057 72.7373424 27.76057 72.7373424 24.1201072 74.9023978 24.1201072 74.9023978 24.6921635 73.3302468 24.6921635 73.3302468 25.6384998 74.773617 25.6384998 74.773617 26.2056692 73.3302468 26.2056692"></polygon>
                    <polygon id="Fill-22" fill="#FFFFFF" mask="url(#mask-2)" points="77.0931239 27.1885137 78.5621363 27.1885137 78.5621363 27.76057 76.5002195 27.76057 76.5002195 24.1201072 77.0931239 24.1201072"></polygon>
                    <path d="M84.0569438,27.8282681 C83.5138992,27.8282681 83.0637364,27.6471649 82.7064552,27.2849584 C82.3488892,26.9224644 82.1702486,26.4743057 82.1702486,25.9401949 C82.1702486,25.4063715 82.3488892,24.9582128 82.7064552,24.5957188 C83.0637364,24.2335123 83.5138992,24.0524091 84.0569438,24.0524091 C84.3834543,24.0524091 84.6848925,24.1303122 84.9615432,24.286406 C85.2381939,24.4424997 85.4538732,24.6540743 85.6085811,24.9208423 L85.0928882,25.222681 C84.9968724,25.0424402 84.8566951,24.8992824 84.6729261,24.7934951 C84.4891571,24.6879952 84.2837347,24.6348141 84.0569438,24.6348141 C83.6720261,24.6348141 83.3600461,24.7578493 83.1212888,25.0042073 C82.8825316,25.2502777 82.763153,25.5624652 82.763153,25.9401949 C82.763153,26.318212 82.8825316,26.630112 83.1212888,26.8764699 C83.3600461,27.1228278 83.6720261,27.2458631 84.0569438,27.2458631 C84.2837347,27.2458631 84.4900118,27.1929694 84.6754903,27.0871821 C84.8609688,26.9813948 85.0002914,26.838237 85.0928882,26.6579962 L85.6085811,26.9543731 C85.4572922,27.2214285 85.2433223,27.4338655 84.9666716,27.591684 C84.6900209,27.7495026 84.3868733,27.8282681 84.0569438,27.8282681" id="Fill-23" fill="#FFFFFF" mask="url(#mask-2)"></path>
                    <path d="M87.8842398,26.8738252 C88.1298349,27.1219079 88.4332675,27.2458056 88.7939676,27.2458056 C89.1549526,27.2458056 89.4581003,27.1219079 89.7036955,26.8738252 C89.9492906,26.62603 90.0723731,26.3147049 90.0723731,25.9404248 C90.0723731,25.5658573 89.9492906,25.2545322 89.7036955,25.006737 C89.4581003,24.7589417 89.1549526,24.6347566 88.7939676,24.6347566 C88.4332675,24.6347566 88.1298349,24.7589417 87.8842398,25.006737 C87.6383597,25.2545322 87.5155621,25.5658573 87.5155621,25.9404248 C87.5155621,26.3147049 87.6383597,26.62603 87.8842398,26.8738252 M90.1213782,27.279439 C89.7586837,27.6453826 89.3164984,27.8282106 88.7939676,27.8282106 C88.2717217,27.8282106 87.8292515,27.6453826 87.4668419,27.279439 C87.1041474,26.9137829 86.9229426,26.4673491 86.9229426,25.9404248 C86.9229426,25.4132131 87.1041474,24.9670667 87.4668419,24.6011232 C87.8292515,24.2354671 88.2717217,24.0523516 88.7939676,24.0523516 C89.3164984,24.0523516 89.7586837,24.2354671 90.1213782,24.6011232 C90.4837878,24.9670667 90.6649926,25.4132131 90.6649926,25.9404248 C90.6649926,26.4673491 90.4837878,26.9137829 90.1213782,27.279439" id="Fill-24" fill="#FFFFFF" mask="url(#mask-2)"></path>
                    <polygon id="Fill-25" fill="#FFFFFF" mask="url(#mask-2)" points="94.402256 24.1200209 94.9951604 24.1200209 94.9951604 27.7604838 94.5310368 27.7604838 92.830105 25.2902929 92.830105 27.7604838 92.2372006 27.7604838 92.2372006 24.1200209 92.6896428 24.1200209 94.402256 26.6071723"></polygon>
                    <path d="M97.5284661,26.8738252 C97.7740612,27.1219079 98.0774938,27.2458056 98.4381939,27.2458056 C98.7991789,27.2458056 99.1023266,27.1219079 99.3479218,26.8738252 C99.5935169,26.62603 99.7165994,26.3147049 99.7165994,25.9404248 C99.7165994,25.5658573 99.5935169,25.2545322 99.3479218,25.006737 C99.1023266,24.7589417 98.7991789,24.6347566 98.4381939,24.6347566 C98.0774938,24.6347566 97.7740612,24.7589417 97.5284661,25.006737 C97.282586,25.2545322 97.1597884,25.5658573 97.1597884,25.9404248 C97.1597884,26.3147049 97.282586,26.62603 97.5284661,26.8738252 M99.7656045,27.279439 C99.40291,27.6453826 98.9607247,27.8282106 98.4381939,27.8282106 C97.915948,27.8282106 97.4734778,27.6453826 97.1110682,27.279439 C96.7483737,26.9137829 96.5671689,26.4673491 96.5671689,25.9404248 C96.5671689,25.4132131 96.7483737,24.9670667 97.1110682,24.6011232 C97.4734778,24.2354671 97.915948,24.0523516 98.4381939,24.0523516 C98.9607247,24.0523516 99.40291,24.2354671 99.7656045,24.6011232 C100.128014,24.9670667 100.309219,25.4132131 100.309219,25.9404248 C100.309219,26.4673491 100.128014,26.9137829 99.7656045,27.279439" id="Fill-26" fill="#FFFFFF" mask="url(#mask-2)"></path>
                    <path d="M103.587715,27.8282681 C103.044671,27.8282681 102.594508,27.6471649 102.237226,27.2849584 C101.87966,26.9224644 101.70102,26.4743057 101.70102,25.9401949 C101.70102,25.4063715 101.87966,24.9582128 102.237226,24.5957188 C102.594508,24.2335123 103.044671,24.0524091 103.587715,24.0524091 C103.914226,24.0524091 104.215664,24.1303122 104.492314,24.286406 C104.768965,24.4424997 104.984644,24.6540743 105.139352,24.9208423 L104.623659,25.222681 C104.527644,25.0424402 104.387466,24.8992824 104.203697,24.7934951 C104.019928,24.6879952 103.814506,24.6348141 103.587715,24.6348141 C103.202797,24.6348141 102.890817,24.7578493 102.65206,25.0042073 C102.413303,25.2502777 102.293924,25.5624652 102.293924,25.9401949 C102.293924,26.318212 102.413303,26.630112 102.65206,26.8764699 C102.890817,27.1228278 103.202797,27.2458631 103.587715,27.2458631 C103.814506,27.2458631 104.020783,27.1929694 104.206262,27.0871821 C104.39174,26.9813948 104.531063,26.838237 104.623659,26.6579962 L105.139352,26.9543731 C104.988063,27.2214285 104.774094,27.4338655 104.497443,27.591684 C104.220792,27.7495026 103.917645,27.8282681 103.587715,27.8282681" id="Fill-27" fill="#FFFFFF" mask="url(#mask-2)"></path>
                    <polygon id="Fill-28" fill="#FFFFFF" mask="url(#mask-2)" points="106.65982 27.7605413 107.252724 27.7605413 107.252724 24.1200784 106.65982 24.1200784"></polygon>
                    <polygon id="Fill-29" fill="#FFFFFF" mask="url(#mask-2)" points="112.458829 24.1200209 112.458829 27.7604838 111.865925 27.7604838 111.865925 25.1655329 110.768154 26.9961131 110.696071 26.9958256 109.598016 25.1597836 109.598016 27.7604838 109.005112 27.7604838 109.005112 24.1200209 109.644457 24.1200209 110.732825 25.9399649 111.824328 24.1200209"></polygon>
                    <polygon id="Fill-30" fill="#FFFFFF" mask="url(#mask-2)" points="114.211444 27.7605413 114.804349 27.7605413 114.804349 24.1200784 114.211444 24.1200784"></polygon>
                    <polygon id="Fill-31" fill="#FFFFFF" mask="url(#mask-2)" points="117.149441 27.1885137 118.747519 27.1885137 118.747519 27.76057 116.556536 27.76057 116.556536 24.1201072 118.721592 24.1201072 118.721592 24.6921635 117.149441 24.6921635 117.149441 25.6384998 118.592811 25.6384998 118.592811 26.2056692 117.149441 26.2056692"></polygon>
                    <polygon id="Fill-32" fill="#FFFFFF" mask="url(#mask-2)" points="122.484497 24.1200209 123.077402 24.1200209 123.077402 27.7604838 122.613278 27.7604838 120.912346 25.2902929 120.912346 27.7604838 120.319442 27.7604838 120.319442 24.1200209 120.771884 24.1200209 122.484497 26.6071723"></polygon>
                    <polygon id="Fill-33" fill="#FFFFFF" mask="url(#mask-2)" points="127.175137 24.1200209 127.175137 24.6920772 126.159707 24.6920772 126.159707 27.7604838 125.566802 27.7604838 125.566802 24.6920772 124.546243 24.6920772 124.546243 24.1200209"></polygon>
                    <path d="M129.218962,26.8738252 C129.464557,27.1219079 129.76799,27.2458056 130.12869,27.2458056 C130.489675,27.2458056 130.792823,27.1219079 131.038418,26.8738252 C131.284013,26.62603 131.407096,26.3147049 131.407096,25.9404248 C131.407096,25.5658573 131.284013,25.2545322 131.038418,25.006737 C130.792823,24.7589417 130.489675,24.6347566 130.12869,24.6347566 C129.76799,24.6347566 129.464557,24.7589417 129.218962,25.006737 C128.973082,25.2545322 128.850285,25.5658573 128.850285,25.9404248 C128.850285,26.3147049 128.973082,26.62603 129.218962,26.8738252 M131.456101,27.279439 C131.093406,27.6453826 130.651221,27.8282106 130.12869,27.8282106 C129.606444,27.8282106 129.163974,27.6453826 128.801564,27.279439 C128.43887,26.9137829 128.257665,26.4673491 128.257665,25.9404248 C128.257665,25.4132131 128.43887,24.9670667 128.801564,24.6011232 C129.163974,24.2354671 129.606444,24.0523516 130.12869,24.0523516 C130.651221,24.0523516 131.093406,24.2354671 131.456101,24.6011232 C131.81851,24.9670667 131.999715,25.4132131 131.999715,25.9404248 C131.999715,26.4673491 131.81851,26.9137829 131.456101,27.279439" id="Fill-34" fill="#FFFFFF" mask="url(#mask-2)"></path>
                    <path d="M10.1630817,26.8501381 L9.34053732,26.8501381 L14.2219552,14.2324158 L19.1700427,26.0561584 C19.3085105,26.3850189 19.1720371,26.5359383 19.1070769,26.6354014 C19.0418317,26.734577 18.8523645,26.8501381 18.4982173,26.8501381 L10.1630817,26.8501381 Z M1.21908659,26.6736343 C1.15412638,26.5744587 1.01765296,26.3850189 1.15612078,26.0561584 L9.4912564,6.30670513 C9.6616345,5.90195374 10.017776,5.87751917 10.1630817,5.87751917 C10.3083875,5.87751917 10.664529,5.93098775 10.834907,6.33573915 L13.6059728,12.7654795 L8.1658402,26.8501381 L1.8279461,26.8501381 C1.47379899,26.8501381 1.28433172,26.7730973 1.21908659,26.6736343 L1.21908659,26.6736343 Z M28.0106143,25.5689044 L19.6754787,5.84676037 C19.0455356,4.35107748 16.9445857,4.38413601 16.3146426,5.8798189 L14.0797835,11.0907056 L14.340479,11.6144677 L14.3387696,11.6144677 L11.8434998,5.80191575 C11.5286707,5.05421804 10.8457337,4.73570629 10.1630817,4.73570629 C9.4804297,4.73570629 8.79749276,5.13729557 8.48266368,5.88499328 L0.147528054,25.5548186 C-0.364460964,26.7699352 0.519339778,28 1.8279461,28 L10.1630817,28 L18.4982173,28 L18.7788569,28 L26.3301963,28 C27.6388026,28 28.5226033,26.7837336 28.0106143,25.5689044 L28.0106143,25.5689044 Z" id="Fill-35" fill="#FFFFFF" mask="url(#mask-2)"></path>
                </g>
            </g>
        </g>
    </g>
</svg>